<?xml version="1.0" encoding="UTF-8"?><svg id="Layer_2" xmlns="http://www.w3.org/2000/svg" viewBox="0 0 145.83 71.35"><defs><style>.cls-1{fill:#1d1d1b;stroke-width:0px;}</style></defs><g id="Layer_6"><polygon class="cls-1" points="43.83 19.49 41.01 25.22 46.62 25.22 43.83 19.49"/><path class="cls-1" d="m85.71,46.43h-6.6v3.28h6.6c1.6,0,2.56-.38,2.56-1.65s-.96-1.63-2.56-1.63Z"/><path class="cls-1" d="m61.8,40.4c-3.41,0-5.55,1.67-5.55,4.61s2.12,4.61,5.55,4.61,5.55-1.67,5.55-4.61-2.12-4.61-5.55-4.61Z"/><path class="cls-1" d="m87.53,41.95c0-1.18-1.01-1.52-2.52-1.52h-5.9v3.05h5.9c1.51,0,2.52-.33,2.52-1.54Z"/><polygon class="cls-1" points="102.43 46.65 107.84 46.65 105.15 41.12 102.43 46.65"/><path class="cls-1" d="m32.88,0l-16.38,15.98c1.5-.66,3.41-1.03,5.6-1.03,3.47,0,6.66.83,8.88,2.41l-2.38,2.94c-1.81-1.27-3.98-1.78-6.5-1.8-1.9,0-4.19.3-4.19,1.46,0,1.09,1.88,1.23,4.77,1.46,5.3.44,9.04,1.48,9.04,5.21,0,3.33-3.08,5.6-8.95,5.6-4.16,0-7.66-1.13-10.2-3.17l2.48-2.91c1.92,1.62,4.58,2.52,7.82,2.52,2.78,0,4.17-.51,4.17-1.57s-1.3-1.39-4.63-1.67c-4.81-.42-9.18-1.48-9.18-5.09,0-.49.09-.93.23-1.36L0,32.07v39.28h112.95l18.95-18.48h-13.35v-15.6h4.54v11.94h10.5v2.01l12.24-11.94V0H32.88Zm-1.45,49.92c-1.67,2.07-4.74,3.45-8.91,3.45-6.4,0-10.36-3.03-10.36-8.31s3.97-8.31,10.36-8.31c3.85,0,6.64,1.36,8.27,2.87l-3.32,2.45c-1.34-1.2-2.74-1.74-4.84-1.74-3.79,0-5.86,1.67-5.86,4.72s2.14,4.75,5.93,4.75c1.92,0,3.43-.38,4.52-1.38v-1.4h-5.17v-3.19h9.38v6.08Zm9.84-34.44h5.16l8.38,16.2h-5.02l-1.53-3.1h-8.88l-1.53,3.1h-4.95l8.37-16.2Zm8.59,37.38h-15.04v-15.6h4.55v11.94h10.49v3.65Zm11.93.45c-6.17,0-10.16-3.03-10.16-8.31s3.99-8.31,10.16-8.31,10.18,3.03,10.18,8.31-4.01,8.31-10.18,8.31Zm6.32-24.07h-.23l-6.46-7.91v10.34h-4.56V15.48h5.16l6.09,7.77,6.13-7.77h5.02v16.2h-4.7v-10.34l-6.45,7.91Zm18.54,23.61h-12.06v-15.6h11.16c3.83,0,6.26,1.54,6.26,4.03,0,1.76-1.22,3.3-3.56,3.43,2.45.16,4.46,1.45,4.46,3.86,0,2.7-2.43,4.28-6.26,4.28Zm24.24,0l-1.47-2.99h-8.56l-1.47,2.99h-4.77l8.06-15.6h4.97l8.06,15.6h-4.83Z"/></g></svg>